#!OML:ASF F:\VICON\USERDATA\INSTALL\rory3\rory3.ASF
:FULLY-SPECIFIED
:DEGREES
54
root 0.49942378603207505 17.78022645231464 19.18674493756064 -1.957892438001143 -3.818958217658317 -4.636303584601372
lfemur -21.609664438630183 -3.61465087972425 -15.433006648094613
ltibia 23.8950459252327
lfoot -2.455145254313605 0.023304478952538066
ltoes -2.0401549085893755
rfemur 10.81125851447263 5.253450523291134 30.09974330008478
rtibia 39.232874393717196
rfoot -3.7316540439514903 1.1687608800033216
rtoes -1.1855926330887852
lowerback 8.899157651108295 2.8796570430549044 5.357878925482593
upperback 0.11542726722701585 4.420130100738405 1.1875756317711659
thorax -4.678601658066856 2.0828216747678345 -1.8760681274235909
lowerneck -16.778944180509235 -3.270962171407725 -1.5473042772198993
upperneck 20.90605557379884 -4.371210003901953 1.4533150953580452
head 9.431769207543898 -2.0251233863820794 0.16522350060275484
lclavicle -9.946440844836083e-16 1.7887246877534815e-15
lhumerus -38.48048424585342 6.788025411795158 82.54557448190667
lradius 20.010654169248294
lwrist 0.2965380053693494
lhand -25.535372891968095 23.241624908472428
lfingers 7.12502
lthumb 0.994497896014481 53.21552181095803
rclavicle -9.946440844836083e-16 1.7887246877534815e-15
rhumerus -24.00103733476095 -12.65719408972155 -81.29440884464643
rradius 29.108039957738953
rwrist 2.301232435274751
rhand -18.445312709911796 23.86928217642862
rfingers 7.12502
rthumb 7.840447230499536 -5.9703071979816205
55
root 0.6167119113975624 17.837211021826583 20.76082518374957 -2.5015007073875966 -3.6604049894183257 -3.132558175104501
lfemur -19.277677921956226 -3.1285990327916564 -17.779605010555123
ltibia 27.382784467162445
lfoot -2.999025711278163 -0.6954963868223227
ltoes -0.7352380262796623
rfemur 7.387450942200367 4.292574751107719 27.72224557971467
rtibia 48.773157579324845
rfoot 5.583334821002575 2.0129958727992587
rtoes 4.056876808886222
lowerback 9.083051529093128 2.9031499728074888 4.2755700614869685
upperback 0.11308539612938151 4.320878832686191 0.8700998732402982
thorax -4.781309082716655 2.0534212441923754 -1.4794808955285395
lowerneck -16.690030421331013 -3.244268719142948 -1.5776810254627762
upperneck 21.044117970157405 -4.336375648781782 1.526151341674808
head 9.476654978769362 -2.0083438184562508 0.19947329469325287
lclavicle -5.057710034171048e-16 2.238776809486654e-15
lhumerus -38.26516639032066 7.236735334118804 82.32264017559419
lradius 19.92718428993681
lwrist 0.7985401927387255
lhand -25.13729248056023 23.81727471543291
lfingers 7.12502
lthumb 1.3789869384816895 53.789790863933334
rclavicle -5.057710034171048e-16 2.238776809486654e-15
rhumerus -24.831318474630766 -14.001588137752332 -80.87955434483982
rradius 28.613594918108312
rwrist 3.1856085885956014
rhand -18.183225984947125 23.43035827567676
rfingers 7.12502
rthumb 8.093399253241705 -6.400235483302369
56
root 0.7036136688531816 17.894549118851764 21.18532300804577 -3.0232844358612403 -3.905059251781134 -1.7967452942935844
lfemur -16.942876879489326 -3.040930681523834 -20.179328196782343
ltibia 28.48633257498218
lfoot -4.8494026206069885 -0.205128421015349
ltoes 0.32544068347599886
rfemur 1.8424906603876092 3.2385261145251345 25.139793805002597
rtibia 58.009869071484076
rfoot 11.666189326050933 0.48730928835276277
rtoes 9.08510958212342
lowerback 9.3717954813466 2.8150255494196204 2.9148953682917256
upperback 0.16798887553179026 4.0533122492893305 0.5568788261004314
thorax -4.912049980157608 1.9465698681978962 -1.094741415626657
lowerneck -16.71100649030787 -3.1538001268644646 -1.6200706064729986
upperneck 21.044965588399783 -4.203149340691332 1.4970369624363018
head 9.481198836806682 -1.95242355701353 0.21504996268409038
lclavicle -7.796245918466488e-16 1.9873405542426095e-15
lhumerus -37.858038924636105 6.825272987018282 82.34783566548012
lradius 20.206292773491196
lwrist 2.0082138998750216
lhand -25.43697750274262 23.844193870936103
lfingers 7.12502
lthumb 1.089570147158799 53.814152705257456
rclavicle -7.796245918466488e-16 1.98734055424261e-15
rhumerus -25.619496681753528 -15.501348746727762 -80.62686976653885
rradius 27.718711487379053
rwrist 4.242078520329112
rhand -17.879252209994434 22.828632276398306
rfingers 7.12502
rthumb 8.386777277319037 -6.989118043006262
57
root 0.7640166698004498 17.94254864073294 21.566284913247806 -3.4550320775076284 -4.134287161524365 -0.6522994980931336
lfemur -14.138029266190287 -3.0940613493649605 -22.12500488239865
ltibia 28.5091686943722
lfoot -6.882294201057413 0.9094592483747563
ltoes 1.1207188103832526
rfemur -4.136765958184704 2.260508957964838 23.14072960609786
rtibia 65.7558922899623
rfoot 12.435245208001593 -2.3541573946891714
rtoes 11.841673181112787
lowerback 9.682867199913684 2.612596121656802 1.67938675079645
upperback 0.28450485288336863 3.649595892428382 0.3656728283207502
thorax -5.003162611643951 1.7723557405874053 -0.6246726942791089
lowerneck -16.729830065523757 -3.0135559864874715 -1.6497162934029346
upperneck 20.970522150770552 -3.988810338732408 1.4010482523209624
head 9.457174626852566 -1.8661639795583256 0.22290268170121183
lclavicle -9.626823080938427e-16 1.819936761766691e-15
lhumerus -36.921409795830016 6.052947916568605 82.53750069930999
lradius 20.69328286904672
lwrist 3.2324523093913484
lhand -26.114453622111423 23.427783806145385
lfingers 7.12502
lthumb 0.4352652341964729 53.39516642055513
rclavicle -9.626823080938427e-16 1.819936761766691e-15
rhumerus -26.13958248154264 -16.94393975067159 -80.3582125125778
rradius 26.65335211583532
rwrist 5.608894659413672
rhand -17.588157769714286 22.33491119879126
rfingers 7.12502
rthumb 8.667720048083039 -7.470829206292346
58
root 0.79762222428446 17.97104304071717 21.93451657681768 -3.7892455870974584 -4.156909169022095 0.08686894243224152
lfemur -11.615335515757161 -3.2854561418343877 -23.60889034670231
ltibia 27.806646093179396
lfoot -8.799125432237977 1.962767409396719
ltoes 1.4095161028881091
rfemur -9.946741712177065 1.3328483915265275 21.871425714212364
rtibia 70.65332400216383
rfoot 8.452413251868258 -5.055073169224267
rtoes 11.846230165739627
lowerback 9.915032665060567 2.2547211835087775 0.6868834819297536
upperback 0.4112843721529469 3.0672579359281515 0.3035006304026533
thorax -5.050756118181215 1.5069983476392768 -0.17563842678417008
lowerneck -16.68426894544419 -2.866865084887727 -1.6926233442356002
upperneck 20.889113301161135 -3.760222768195217 1.2604177643447234
head 9.416826188169495 -1.7763901512947187 0.2221232509052548
lclavicle -1.3253398706573272e-15 1.4866498235078687e-15
lhumerus -35.69436797660639 4.985178333648502 82.74348634937482
lradius 21.1002568102639
lwrist 3.838636798428129
lhand -26.735839552882037 22.927978508229646
lfingers 7.12502
lthumb -0.16488156963275952 52.894597336687895
rclavicle -1.3253398706573272e-15 1.4866498235078687e-15
rhumerus -26.57328743397028 -18.311819689748766 -80.11315062419877
rradius 25.65411958441878
rwrist 6.7402754881208455
rhand -17.404078277907683 22.05842020696882
rfingers 7.12502
rthumb 8.845380541167408 -7.73869409052493
59
root 0.8197253685475063 17.980872949728425 22.53474357779659 -3.998425181257962 -3.8435595193776253 0.6076399298248196
lfemur -9.094204454407251 -3.491038960264987 -24.768878290492125
ltibia 27.216991804556528
lfoot -10.469456532679049 2.69075325825393
ltoes 1.3992317588837122
rfemur -15.301823455719838 0.494175695332971 21.215348911814303
rtibia 72.91938841299614
rfoot 2.6393426406646814 -6.371211924023915
rtoes 10.121248821698211
lowerback 10.092498860714652 1.7898485492534273 -0.06514356499531093
upperback 0.5204866382866395 2.3682669254787387 0.3504978236124303
thorax -5.073252717802127 1.1801065580582661 0.2987895174415266
lowerneck -16.578694242677603 -2.7471670747824457 -1.764712800526893
upperneck 20.854575754310726 -3.5663418052222444 1.1286570959018887
head 9.383922337679696 -1.7026868424277934 0.22404713078820931
lclavicle -1.5599459628763872e-15 1.2702631940419877e-15
lhumerus -34.10853568359162 3.6873567195529713 82.91742984516223
lradius 21.553913129950963
lwrist 3.8346214682576685
lhand -26.977212438672073 22.8091832820398
lfingers 7.12502
lthumb -0.39801027831927205 52.77770883067472
rclavicle -1.5599459628763872e-15 1.2702631940419877e-15
rhumerus -27.079372908761265 -19.385812937687174 -79.84158177052429
rradius 24.97876311214729
rwrist 7.3258365353715735
rhand -17.310361849785227 22.005908870924298
rfingers 7.12502
rthumb 8.935822972854325 -7.786189342216794
60
root 0.8301884952678187 17.97204617946097 23.02942198990473 -4.05752232092159 -3.2915331549875555 1.0003532447346948
lfemur -6.723116064348215 -3.652133036993437 -25.71010877028171
ltibia 26.795494045557895
lfoot -12.008660119650397 3.187579418397016
ltoes 1.3632306258094524
rfemur -20.081065850286937 -0.1549506568016943 20.927295241379035
rtibia 72.07560179520358
rfoot -2.7591304053972063 -6.638088965827168
rtoes 7.614974878194346
lowerback 10.235880340769327 1.2759634110556475 -0.711029075467158
upperback 0.5962754638974153 1.6161012609466239 0.4569852025113439
thorax -5.089244829543645 0.8246900302435982 0.792243981589499
lowerneck -16.480908115722098 -2.6746074698753963 -1.8999443039224995
upperneck 20.82646014901678 -3.4385248902937784 1.0494814458776345
head 9.354396324739954 -1.6561821196361892 0.2416197392615451
lclavicle -1.7493743669456385e-15 1.0946859046503421e-15
lhumerus -32.26067106556628 2.1062372501875855 83.05542265280279
lradius 22.210186049644065
lwrist 3.6961496822030693
lhand -26.962153966264783 23.080682206575066
lfingers 7.12502
lthumb -0.38346412737034496 53.05309057256252
rclavicle -1.7493743669456385e-15 1.0946859046503423e-15
rhumerus -27.700006406599154 -19.93273316451414 -79.62477312992847
rradius 24.709594491024706
rwrist 7.186502158528744
rhand -17.29822866972384 22.093333614907955
rfingers 7.12502
rthumb 8.947521582174824 -7.697026104845054
61
root 0.8322926751780051 17.954139409058943 23.618141560308423 -3.937016624043756 -2.6076051985423394 1.401170896261298
lfemur -4.3186426022470235 -3.679364566777592 -26.42231513304004
ltibia 26.353295378721956
lfoot -13.256745441106556 3.5929063597838855
ltoes 1.473271636966412
rfemur -23.85175890641473 -0.5533143548727715 20.852217783943797
rtibia 68.58977972955535
rfoot -6.437047957422392 -6.7958661186113325
rtoes 5.0863309726348405
lowerback 10.339564096972769 0.8089803898668753 -1.3001713364176972
upperback 0.6474475788123957 0.9310227199934586 0.5863362426415777
thorax -5.086964714054094 0.5006521908553829 1.3247300903746417
lowerneck -16.43666539071284 -2.646586276528678 -2.076005003113494
upperneck 20.759905751253154 -3.3768491610918328 1.059814509056913
head 9.322082339142865 -1.6348715652246801 0.28306916855450526
lclavicle -1.7009975275831226e-15 1.137986866319029e-15
lhumerus -30.226453314042185 0.4289904166777882 83.16074914101351
lradius 23.147382271870363
lwrist 3.815388193792178
lhand -26.86589429725537 23.489694243316425
lfingers 7.12502
lthumb -0.2904859150355655 53.46628027282285
rclavicle -1.7009975275831226e-15 1.137986866319029e-15
rhumerus -28.3083091851659 -19.88065401762986 -79.46573331607495
rradius 24.817094370645847
rwrist 6.611334926774899
rhand -17.315421634444913 22.254948738731837
rfingers 7.12502
rthumb 8.930908764901213 -7.5355188769910635
